<svg width="2621" height="2621" viewBox="0 0 2621 2621" fill="none" xmlns="http://www.w3.org/2000/svg">
<path d="M1243.75 1555.85L1348.7 1450.9C1390.08 1409.51 1390.08 1342.18 1348.7 1300.8C1307.32 1259.42 1239.99 1259.42 1198.6 1300.8L1103.85 1395.56C989.654 1509.75 837.95 1577.32 676.679 1585.8L454.322 1597.5C435.639 1598.49 421.294 1614.43 422.274 1633.12C423.255 1651.8 439.197 1666.14 457.882 1665.16L680.24 1653.46C858.252 1644.08 1025.7 1569.51 1151.75 1443.46L1246.51 1348.7C1261.48 1333.73 1285.83 1333.73 1300.8 1348.7C1315.77 1363.67 1315.77 1388.02 1300.8 1402.99L1195.85 1507.94C1055.32 1648.47 868.608 1731.07 670.097 1740.52L454.491 1750.79C435.809 1751.67 421.377 1767.55 422.268 1786.23C422.683 1795 426.394 1802.82 432.142 1808.56C438.657 1815.08 447.787 1818.93 457.713 1818.45L673.316 1808.18C888.699 1797.93 1091.28 1708.31 1243.75 1555.85Z" fill="#202C45"/>
<path d="M1450.89 1553.09C1548.63 1455.36 1548.63 1296.34 1450.89 1198.6C1353.16 1100.87 1194.14 1100.87 1096.41 1198.6L1001.65 1293.36C912.745 1382.27 794.638 1434.87 669.084 1441.48L511.003 1449.8C492.32 1450.78 477.975 1466.73 478.955 1485.41C479.939 1504.09 495.884 1518.43 514.563 1517.46L672.644 1509.13C814.94 1501.64 948.797 1442.03 1049.56 1341.27L1144.32 1246.51C1215.63 1175.19 1331.68 1175.19 1402.99 1246.51C1474.31 1317.83 1474.31 1433.87 1402.99 1505.19L1298.04 1610.14C1132.04 1776.14 911.478 1873.72 676.975 1884.88L495.057 1893.55C476.372 1894.43 461.94 1910.31 462.831 1928.99C463.246 1937.76 466.957 1945.57 472.706 1951.32C479.22 1957.84 488.351 1961.68 498.276 1961.21L680.197 1952.55C931.565 1940.58 1168 1835.99 1345.94 1658.04L1450.89 1553.09Z" fill="#202C45"/>
<path d="M1553.09 1655.28C1707.17 1501.2 1707.17 1250.49 1553.09 1096.41C1399.01 942.328 1148.3 942.328 994.216 1096.41L899.457 1191.17C835.842 1254.79 751.327 1292.42 661.486 1297.15L519.15 1304.64C500.467 1305.63 486.122 1321.57 487.102 1340.25C488.083 1358.93 504.035 1373.28 522.71 1372.3L665.047 1364.81C771.629 1359.2 871.89 1314.54 947.36 1239.07L1042.12 1144.31C1169.79 1016.65 1377.52 1016.65 1505.18 1144.31C1632.85 1271.98 1632.85 1479.71 1505.18 1607.38L1400.23 1712.33C1208.75 1903.81 954.335 2016.36 683.848 2029.23L633.501 2031.63C614.816 2032.52 600.387 2048.4 601.278 2067.08C601.697 2075.84 605.407 2083.67 611.153 2089.41C617.668 2095.93 626.798 2099.77 636.723 2099.3L687.067 2096.9C974.426 2083.22 1244.71 1963.66 1448.13 1760.23L1553.09 1655.28L1553.09 1655.28Z" fill="#202C45"/>
<path d="M892.023 994.217C878.792 1007.45 878.795 1028.89 892.023 1042.12C905.251 1055.35 926.695 1055.35 939.926 1042.12C1020.58 961.467 1127.77 912.838 1241.76 905.193C1354.69 897.618 1466.39 930.515 1556.29 997.822C1571.26 1009.03 1592.49 1005.98 1603.7 991.01C1614.91 976.036 1611.84 954.808 1596.89 943.596C1494.04 866.586 1366.31 828.941 1237.22 837.601C1106.87 846.342 984.275 901.964 892.023 994.217Z" fill="#202C45"/>
<path d="M845.168 1136.88C858.398 1123.65 858.395 1102.2 845.168 1088.98C831.94 1075.75 810.495 1075.74 797.264 1088.98C758.935 1127.3 708.024 1149.98 653.899 1152.83L527.288 1159.5C508.608 1160.48 494.263 1176.42 495.243 1195.1C495.703 1203.8 499.401 1211.56 505.112 1217.27C511.665 1223.82 520.872 1227.67 530.852 1227.15L657.46 1220.48C728.322 1216.75 794.984 1187.06 845.168 1136.88Z" fill="#202C45"/>
<path d="M1299.7 2019.03C1290.23 2002.9 1269.5 1997.47 1253.35 2006.91C1210.73 2031.85 1166.14 2054.43 1120.83 2074.03C1103.66 2081.45 1095.76 2101.39 1103.18 2118.56C1104.93 2122.6 1107.37 2126.13 1110.31 2129.07C1119.84 2138.6 1134.59 2141.88 1147.72 2136.21C1195.54 2115.53 1242.59 2091.7 1287.57 2065.38C1303.71 2055.93 1309.14 2035.18 1299.7 2019.03Z" fill="#202C45"/>
<path d="M1812.35 1346.93C1811.36 1328.25 1795.4 1313.91 1776.73 1314.91C1758.05 1315.9 1743.71 1331.85 1744.7 1350.53C1751.82 1484.32 1701.77 1615.18 1607.37 1709.57L1502.42 1814.52C1462.59 1854.36 1419.7 1891.75 1374.95 1925.66C1360.04 1936.97 1357.11 1958.21 1368.41 1973.12C1369.37 1974.38 1370.39 1975.55 1371.48 1976.64C1383.26 1988.42 1402.22 1990 1415.87 1979.65C1463.08 1943.87 1508.32 1904.43 1550.33 1862.42L1655.28 1757.47C1763.24 1649.52 1820.49 1499.88 1812.35 1346.93Z" fill="#202C45"/>
<path d="M1718.12 1217.22C1719.86 1222.13 1722.62 1226.38 1726.07 1229.83C1735.02 1238.78 1748.65 1242.33 1761.38 1237.81C1779 1231.56 1788.22 1212.19 1781.97 1194.56C1763.89 1143.62 1738.3 1095.86 1705.9 1052.6C1694.66 1037.62 1673.46 1034.58 1658.49 1045.79C1643.51 1057 1640.46 1078.23 1651.67 1093.2C1679.97 1131 1702.33 1172.72 1718.12 1217.22Z" fill="#202C45"/>
<path d="M1757.48 892.023C1748.52 883.062 1739.2 874.248 1729.79 865.82C1715.86 853.339 1694.44 854.521 1681.96 868.454C1669.48 882.394 1670.6 903.852 1684.6 916.284C1693.09 923.885 1701.49 931.837 1709.57 939.92C1949.94 1180.29 1949.94 1571.39 1709.57 1811.76L1604.62 1916.71C1591.39 1929.94 1591.39 1951.39 1604.62 1964.62C1617.85 1977.84 1639.29 1977.85 1652.52 1964.62L1757.47 1859.67C2024.26 1592.89 2024.26 1158.8 1757.48 892.023Z" fill="#202C45"/>
<path d="M1365.64 760.094C1370.35 764.811 1376.51 768.186 1383.58 769.457C1451.14 781.596 1515.59 804.673 1575.16 838.039C1591.48 847.182 1612.13 841.36 1621.27 825.041C1630.41 808.722 1624.58 788.082 1608.27 778.933C1542.12 741.875 1470.55 716.253 1395.57 702.776C1377.15 699.468 1359.54 711.712 1356.24 730.122C1354.19 741.476 1358.06 752.516 1365.64 760.094Z" fill="#202C45"/>
<path d="M742.973 1034.69L837.732 939.926C949.156 828.503 1097.47 764.584 1255.35 759.938C1274.05 759.385 1288.76 743.785 1288.22 725.083C1287.67 706.382 1272.06 691.672 1253.36 692.222C1078.14 697.376 913.515 768.337 789.829 892.023L695.07 986.782C682.031 999.821 664.712 1007.53 646.308 1008.5L583.96 1011.78C565.278 1012.76 550.932 1028.71 551.916 1047.39C552.369 1056.09 556.071 1063.85 561.781 1069.56C568.334 1076.11 577.534 1079.96 587.518 1079.44L649.865 1076.16C685.017 1074.3 718.083 1059.58 742.973 1034.69Z" fill="#202C45"/>
<path d="M2015.74 1744.95C2067.54 1640.61 2096.32 1528.34 2101.28 1411.23C2102.07 1392.54 2087.57 1376.75 2068.88 1375.96C2050.18 1375.17 2034.39 1389.68 2033.6 1408.37C2029.04 1515.93 2002.62 1619.04 1955.07 1714.83C1948.43 1728.2 1951.45 1743.85 1961.44 1753.85C1963.98 1756.38 1966.96 1758.55 1970.35 1760.23C1987.1 1768.54 2007.43 1761.71 2015.74 1744.95Z" fill="#202C45"/>
<path d="M2017.59 1010.48C2009.36 993.69 1989.07 986.737 1972.27 994.974C1955.47 1003.21 1948.52 1023.5 1956.76 1040.29C1991.5 1111.18 2014.91 1186.95 2026.32 1265.5C2027.41 1273.01 2030.89 1279.58 2035.87 1284.56C2043.17 1291.86 2053.71 1295.75 2064.72 1294.15C2083.23 1291.46 2096.05 1274.27 2093.36 1255.76C2080.93 1170.23 2055.44 1087.7 2017.59 1010.48Z" fill="#202C45"/>
<path d="M1289.81 615.378C1487.16 619.53 1672.53 698.497 1811.77 837.733C1837.62 863.588 1861.76 891.448 1883.51 920.532C1894.7 935.545 1915.94 938.579 1930.92 927.376C1945.91 916.173 1948.97 894.952 1937.77 879.967C1914.08 848.294 1887.8 817.965 1859.67 789.829C1708.02 638.177 1506.14 552.168 1291.23 547.649C1076.99 543.146 872.293 619.913 714.854 763.811C701.045 776.432 700.08 797.861 712.701 811.664C713.049 812.05 713.407 812.42 713.771 812.785C726.504 825.517 747.131 826.089 760.557 813.819C905.087 681.712 1093.04 611.239 1289.81 615.378Z" fill="#202C45"/>
<path d="M1961.86 687.636C1908.3 634.073 1848.72 586.908 1784.78 547.451C1768.86 537.625 1747.99 542.572 1738.16 558.488C1728.34 574.408 1733.29 595.281 1749.21 605.101C1808.68 641.808 1864.11 685.688 1913.96 735.539C2089.59 911.172 2183.56 1145.09 2178.56 1394.19C2178.37 1403.79 2182.18 1412.54 2188.48 1418.83C2194.45 1424.8 2202.64 1428.56 2211.75 1428.74C2230.45 1429.12 2245.92 1414.26 2246.29 1395.56C2248.9 1265.77 2226.27 1138.99 2179.05 1018.76C2130.13 894.233 2057.05 782.826 1961.86 687.636Z" fill="#202C45"/>
<path d="M1125.56 447.912C1126.51 455.723 1130.05 462.589 1135.22 467.756C1142.33 474.868 1152.52 478.755 1163.27 477.446C1318.73 458.517 1476.98 479.994 1620.94 539.544C1638.23 546.695 1658.04 538.481 1665.19 521.194C1672.34 503.907 1664.13 484.082 1646.84 476.944C1492.14 412.945 1322.09 389.862 1155.1 410.192C1136.52 412.457 1123.3 429.344 1125.56 447.912Z" fill="#202C45"/>
<path d="M1608.28 377.005C1611.77 380.499 1616.09 383.28 1621.06 385.011C1770.6 437.165 1903.53 520.718 2016.15 633.345C2074.85 692.036 2126.4 757.396 2169.37 827.6C2179.13 843.539 2199.98 848.572 2215.94 838.806C2231.89 829.04 2236.91 808.186 2227.14 792.228C2181.39 717.479 2126.52 647.905 2064.06 585.442C1944.16 465.543 1802.62 376.587 1643.38 321.048C1625.71 314.887 1606.4 324.212 1600.24 341.876C1595.81 354.561 1599.38 368.101 1608.28 377.005Z" fill="#202C45"/>
<path d="M2237.67 959.506C2252.53 994.032 2265.67 1029.78 2276.72 1065.74C2278.4 1071.21 2281.34 1075.95 2285.12 1079.73C2293.7 1088.31 2306.63 1091.99 2319.04 1088.17C2336.92 1082.68 2346.97 1063.73 2341.48 1045.84C2329.71 1007.55 2315.72 969.492 2299.9 932.725C2292.5 915.537 2272.58 907.608 2255.4 914.998C2238.21 922.394 2230.28 942.325 2237.67 959.506Z" fill="#202C45"/>
</svg>
